<svg width="146" height="213" viewBox="0 0 146 213" fill="none" xmlns="http://www.w3.org/2000/svg">
<g opacity="0.167527" filter="url(#filter0_f)">
<ellipse cx="103" cy="207" rx="37" ry="3" fill="#17191D"/>
</g>
<path d="M86.6719 198.216L84.6783 181.982L93.412 183.406L94.5512 200.494L86.1972 198.69L86.6719 198.216Z" fill="#ECACA1"/>
<path d="M95.8802 196.317C95.8802 196.317 88.8553 198.88 85.7226 194.324L70.3438 202.298L97.7788 203.247L95.8802 196.317Z" fill="#F44B69"/>
<path d="M70.2488 204.766L97.6839 205.81L97.7788 203.342L70.3438 202.298L70.2488 204.766Z" fill="white"/>
<path d="M79.1724 83.0645C79.1724 83.0645 75.3751 97.7788 77.6535 139.928L81.071 188.248H98.7281L93.6968 83.824L79.1724 83.0645Z" fill="#7A39FA"/>
<path d="M129.106 189.482L119.708 176.002L127.207 171.35L136.511 185.97L129.106 190.147V189.482Z" fill="#ECACA1"/>
<path d="M134.802 181.982C134.802 181.982 131.194 188.628 125.783 187.204L119.518 203.342L140.782 185.97L134.802 181.982Z" fill="#F44B69"/>
<path d="M121.132 205.241L142.396 187.773L140.877 185.875L119.613 203.342L121.132 205.241Z" fill="white"/>
<path d="M103.759 87.6212C103.759 87.6212 109.835 93.412 109.645 110.025C109.455 126.638 114.676 143.915 114.676 143.915L95.5954 145.909C95.5954 145.909 84.7733 123.22 81.1659 89.0451L103.759 87.6212Z" fill="#7A39FA"/>
<path d="M110.31 135.656C110.31 135.656 132.523 158.345 139.074 174.483L121.606 183.406L95.7852 146.004L110.31 135.656Z" fill="#7A39FA"/>
<path d="M97.1142 148.092C97.1142 148.092 92.9373 144.77 90.7539 135.656C88.6654 126.543 85.4377 110.974 85.4377 110.974L81.6405 106.228" stroke="#B2ACC7" stroke-width="0.5"/>
<circle cx="102.146" cy="9.49309" r="8.82857" fill="#EAEAEA"/>
<circle cx="93.8866" cy="16.9926" r="7.30968" fill="#F44B69"/>
<path d="M83.1594 35.8839L86.8617 47.0857L97.1143 42.9088L91.4184 26.106L83.1594 35.8839Z" fill="#ECACA1"/>
<path d="M85.3429 42.4341C85.2479 42.2442 87.2415 35.4092 87.2415 35.4092L82.9696 37.3078L85.3429 42.4341Z" fill="#ED9083"/>
<path d="M80.0267 12.6258C80.0267 12.6258 74.7106 13.4802 74.4258 20.2203C74.4258 20.2203 74.236 25.0618 74.141 32.0866C74.0461 35.7889 77.3687 38.7318 80.976 37.9723C83.1595 37.4977 85.6277 36.5484 87.8111 34.8396L90.8489 31.9917C98.0636 23.9226 91.4184 11.1069 80.7862 12.5309C80.5963 12.5309 80.3115 12.5309 80.0267 12.6258Z" fill="#ECACA1"/>
<path d="M75.3751 26.3908L72.812 29.0488C72.3373 29.4286 72.4323 30.3779 72.9069 30.3779L75.2802 30.6627V26.3908H75.3751Z" fill="#ECACA1"/>
<path d="M76.7042 22.024C76.7042 22.024 74.9005 21.7392 74.8056 22.4986C74.8056 22.4986 74.7106 23.0682 76.2295 23.2581C77.7484 23.4479 78.2231 23.353 78.4129 22.8783C78.6028 22.4037 77.5585 22.1189 76.7042 22.024Z" fill="#03041F"/>
<circle cx="76.2604" cy="26.5544" r="0.759481" transform="rotate(-10.7481 76.2604 26.5544)" fill="#03041F"/>
<path d="M74.9703 32.3626C75.35 32.7423 76.774 32.5524 77.0588 31.793" stroke="#1D0A05" stroke-width="0.603571" stroke-linecap="round" stroke-linejoin="round"/>
<path d="M87.1465 24.5871C87.1465 24.5871 90.2793 8.35392 76.2295 14.9041C76.2295 14.9041 81.6406 5.98065 93.9816 11.3917C96.5447 12.5309 99.2028 15.6636 99.7723 18.4166C100.532 22.8783 98.0636 26.7705 94.0765 33.7954L89.33 28.2894C89.1401 27.3401 87.1465 24.5871 87.1465 24.5871Z" fill="#EAEAEA"/>
<path d="M91.7032 19.8406L88.8553 26.5806C70.9134 20.9797 79.0774 12.5309 79.0774 12.5309C79.0774 12.5309 93.6019 8.16406 91.7032 19.8406Z" fill="#EAEAEA"/>
<path d="M82.2353 23.7905L85.8175 27.0553L88.2857 22.4037L82.2353 23.7905Z" fill="#E3E0E0"/>
<path d="M81.6405 13.3853C81.6405 13.3853 75.47 14.4295 74.6157 18.7014C74.6157 18.7014 73.5714 14.0498 79.3622 11.9613C85.0581 9.77788 81.6405 13.3853 81.6405 13.3853Z" fill="#E3E0E0"/>
<circle cx="88.8553" cy="25.9161" r="3.51244" fill="#ECACA1"/>
<path d="M87.7161 27.2452C87.7161 27.2452 87.5263 24.682 89.9945 24.8719" stroke="#1D0A05" stroke-width="0.603571" stroke-linecap="round" stroke-linejoin="round"/>
<path fill-rule="evenodd" clip-rule="evenodd" d="M106.138 46.6325C105.967 46.7695 120.467 55.5346 122.651 82.7797C122.935 86.0074 120.657 88.7604 117.429 89.235C114.392 89.7097 110.5 87.8111 109.645 84.8682L100.152 56.8636L106.138 46.6325Z" fill="url(#paint0_linear)"/>
<path fill-rule="evenodd" clip-rule="evenodd" d="M77.7484 49.459L67.4009 69.5843C65.977 72.812 67.306 76.5143 70.3438 78.223V78.223C73.5714 79.9318 77.6535 78.6977 79.3622 75.47L90.9438 56.0092C92.6525 52.8765 91.8931 49.0793 89.1401 46.8009V46.8009C85.5327 43.6682 79.7419 44.9972 77.7484 49.459Z" fill="url(#paint1_linear)"/>
<circle cx="41.2" cy="61.1355" r="6.36037" fill="#ECACA1"/>
<path d="M39.9659 54.965C39.9659 54.965 40.2507 52.4018 43.2885 53.7309C45.8516 54.87 49.459 58.8571 46.5161 64.4581L39.9659 54.965Z" fill="#ECACA1"/>
<path d="M60.0912 62.4645L46.0415 58.8571L42.9088 67.2111L58.0028 71.4829L60.0912 62.4645Z" fill="#EDAC9F"/>
<path fill-rule="evenodd" clip-rule="evenodd" d="M75.0903 67.1161L49.7438 58.4774L47.2756 70.3438L70.7235 78.6028C74.3309 80.1217 78.5078 77.9382 79.1723 74.0461V74.0461C79.8369 71.0083 78.0332 68.0654 75.0903 67.1161Z" fill="url(#paint2_linear)"/>
<path d="M43.2885 62.1797L39.1115 65.5972C38.9217 65.7871 38.5419 65.6922 38.447 65.3124L31.612 50.8829C31.4221 50.5032 31.517 50.1235 31.7069 49.9336L35.8839 46.5161C36.0737 46.3263 36.4534 46.4212 36.5484 46.8009L43.3834 61.2304C43.5733 61.5152 43.4783 61.8949 43.2885 62.1797Z" fill="#444548"/>
<path d="M44.0479 61.5152L39.5862 65.2175C39.3014 65.4074 39.0166 65.3124 38.8267 64.9327L32.0866 50.4083C31.8968 50.0286 31.9917 49.6488 32.2765 49.459L36.7382 45.7567C37.023 45.5668 37.3078 45.6618 37.4977 46.0415L44.2378 60.5659C44.3327 60.8507 44.3327 61.3253 44.0479 61.5152Z" fill="black"/>
<path d="M44.9972 57.0535L45.0922 54.965L41.6747 52.3069C41.2 51.9272 40.4406 52.0221 40.0608 52.4018V52.4018C39.776 52.6866 39.5862 53.1613 40.1558 53.8258L44.7124 57.3382" fill="#ECACA1"/>
<path fill-rule="evenodd" clip-rule="evenodd" d="M81.4507 47.8452C79.3622 50.788 75.9447 56.8636 75.8497 65.0276C75.8497 65.2175 75.8497 65.5023 75.8497 65.6922C76.0396 67.4959 75.47 81.071 75.1852 88.0959C75.0903 89.8995 76.0396 93.412 77.5585 94.2664C80.7862 96.07 94.741 97.6839 106.323 94.4562C107.936 93.9816 108.886 92.2728 108.411 90.5641C107.177 86.2922 102.81 76.1346 105.848 68.0654C113.158 48.7945 106.133 45.282 101.006 44.3327C100.342 44.2378 97.8737 45.7567 97.2092 45.7567L85.058 45.9465C83.6341 45.8516 82.305 46.6111 81.4507 47.8452Z" fill="url(#paint3_linear)"/>
<path d="M79.4571 53.2562C79.4571 53.2562 75.3751 57.0535 75.9446 67.7806C75.9446 67.7806 75.6599 72.9069 75.6599 78.6028" stroke="#DD3D5A" stroke-width="0.5"/>
<path d="M94.4562 40.3456C94.4562 40.3456 99.1078 55.4396 114.676 57.2433C129.296 58.9521 127.777 54.6802 139.928 56.0092C139.928 56.0092 138.029 60.0912 131.005 66.9263C127.112 70.6286 127.302 73.3816 127.302 73.3816C127.302 73.3816 104.424 74.2359 95.4055 62.4645C88.9502 54.1106 87.4313 43.3834 87.4313 43.3834L94.4562 40.3456Z" fill="#7A39FA"/>
<path d="M142.112 59.8064C142.301 59.8064 142.586 59.6166 142.586 59.4267C142.586 59.1419 142.491 58.9521 142.207 58.8571L134.992 57.718C134.707 57.718 134.517 57.8129 134.422 58.0977C134.422 58.3825 134.517 58.5723 134.802 58.6673L142.112 59.8064C142.017 59.8064 142.112 59.8064 142.112 59.8064Z" fill="#F44B69"/>
<path d="M139.454 63.224C139.643 63.224 139.928 63.0341 139.928 62.8442C139.928 62.5594 139.833 62.3696 139.548 62.2747L132.334 61.1355C132.049 61.0405 131.859 61.2304 131.764 61.5152C131.764 61.8 131.859 61.9899 132.144 62.0848L139.454 63.224V63.224Z" fill="#F44B69"/>
<path d="M136.036 66.9263C136.226 66.9263 136.511 66.7364 136.511 66.5465C136.511 66.2617 136.416 66.0719 136.131 65.977L128.916 64.8378C128.631 64.8378 128.442 64.9327 128.347 65.2175C128.347 65.5023 128.442 65.6922 128.726 65.7871L136.036 66.9263C135.941 66.9263 135.941 66.9263 136.036 66.9263Z" fill="#F44B69"/>
<path d="M132.808 71.2931C132.998 71.2931 133.283 71.1032 133.283 70.9134C133.283 70.6286 133.188 70.4387 132.903 70.3438L125.689 69.2046C125.404 69.1097 125.214 69.2995 125.119 69.5843C125.119 69.8691 125.214 70.059 125.499 70.1539L132.808 71.2931V71.2931Z" fill="#F44B69"/>
<path d="M81.5456 38.5419C84.4885 39.1115 91.6083 40.0608 96.7346 36.0737C97.3042 35.5991 98.0636 35.7889 98.3484 36.4534L101.196 43.5733C101.386 43.953 101.291 44.3327 101.006 44.7124C99.2028 46.8009 91.7982 54.3005 80.976 45.9465C80.6912 45.7567 80.5963 45.4719 80.5963 45.1871L80.3115 39.6811C80.3115 39.0166 80.8811 38.447 81.5456 38.5419Z" fill="#6822F2"/>
<circle cx="86.8617" cy="77.7484" r="5.69585" fill="#ECACA1"/>
<path d="M81.4507 76.2295C81.4507 76.2295 79.5521 74.5207 81.9253 72.812C84.2986 71.1032 88.3806 70.1539 91.7982 74.8055L81.4507 76.2295Z" fill="#ECACA1"/>
<path d="M89.9944 74.7106L99.1078 76.6092L97.1143 83.9189L88.9502 81.6406L89.9944 74.7106Z" fill="#EDAC9F"/>
<path fill-rule="evenodd" clip-rule="evenodd" d="M109.93 77.3687C109.36 77.1788 94.3612 74.8055 94.3612 74.8055L92.8423 85.3429L116.195 89.33L109.93 77.3687Z" fill="url(#paint4_linear)"/>
<path d="M113.063 77.7484L94.3613 74.8055" stroke="#DD3D5A" stroke-width="0.5"/>
<path d="M107.462 87.6212L92.9373 85.3429L93.2221 82.7797" stroke="#DD3D5A" stroke-width="0.5"/>
<g opacity="0.0937733" filter="url(#filter1_f)">
<ellipse cx="31" cy="199" rx="25" ry="7" fill="#AB4600"/>
</g>
<path d="M22.9733 154.453C22.9733 154.453 65.1226 135.371 85.7226 80.6913" stroke="#28233C" stroke-width="0.807577"/>
<path d="M49.5539 183.312C50.9779 183.976 52.6866 184.641 54.3005 185.115C55.9143 185.59 57.6231 185.875 59.2369 185.685C60.8507 185.59 62.2747 184.925 63.0341 183.596C63.8885 182.267 64.0784 180.464 63.9834 178.755V178.755C63.9834 178.47 64.1733 178.28 64.4581 178.28C64.7429 178.28 64.9327 178.47 64.9327 178.66C65.1226 179.609 65.2175 180.559 65.2175 181.508C65.2175 182.457 65.0277 183.501 64.6479 184.451C64.2682 185.4 63.5088 186.349 62.6544 186.919C61.8 187.583 60.7558 187.963 59.7115 188.153C57.718 188.628 55.7244 188.533 53.8258 188.248C51.9272 187.963 50.0286 187.583 48.13 186.919C47.0857 186.539 46.5161 185.495 46.8959 184.451C47.2756 183.406 48.3198 182.837 49.3641 183.217C49.2691 183.217 49.3641 183.312 49.5539 183.312V183.312Z" fill="#FCFAFA"/>
<path d="M38.6369 184.071C38.6369 184.071 35.4092 181.223 32.0866 184.735C28.764 188.248 39.1115 196.697 39.1115 196.697C39.1115 196.697 33.1309 195.937 31.9917 199.83H45.8516C46.4212 199.83 46.9908 199.355 46.9908 198.69V198.69C46.9908 197.646 46.6111 196.697 46.0415 195.937L43.0037 192.14L38.6369 184.071Z" fill="#DCDCDC"/>
<path d="M19.271 176.192L14.5244 196.887C14.5244 196.887 10.6322 195.937 9.8728 199.83H16.423L27.0553 179.609L19.271 176.192Z" fill="#DCDCDC"/>
<path d="M19.5558 148.852L50.8829 183.786C52.4018 185.495 53.2562 187.773 53.1613 190.147C53.0664 192.994 52.212 196.317 48.9843 196.697C43.2885 197.456 37.2129 195.937 26.2009 185.21C26.2009 185.21 18.3217 182.932 16.9926 167.743L10.2525 158.155L19.5558 148.852Z" fill="url(#paint5_linear)"/>
<ellipse cx="13.9731" cy="159.285" rx="1.97311" ry="2.28547" fill="black"/>
<ellipse cx="49.9731" cy="187.285" rx="1.97311" ry="2.28547" fill="black"/>
<ellipse cx="35.9731" cy="188.285" rx="1.97311" ry="2.28547" fill="black"/>
<path d="M43.5733 184.071C43.5733 184.071 40.3456 181.223 37.023 184.735C33.7005 188.248 44.0479 196.697 44.0479 196.697C44.0479 196.697 38.0673 195.937 36.9281 199.83H50.788C51.3576 199.83 51.9272 199.355 51.9272 198.69V198.69C51.9272 197.646 51.5475 196.697 50.9779 195.937L47.9401 192.14L43.5733 184.071Z" fill="#F2F2F2"/>
<path d="M19.5558 148.852C19.5558 148.852 17.7521 145.909 14.7143 145.909C12.8157 145.909 10.8221 146.383 8.44884 148.472C6.1705 150.56 1.61382 149.231 1.61382 149.231C1.61382 149.231 -0.119793 155.913 10.3226 158.192C10.3226 158.192 13.1771 156.48 14.2949 155.349C16.2548 153.366 19.5558 148.852 19.5558 148.852Z" fill="white"/>
<path d="M16.518 146.383C16.518 146.383 11.2018 152.079 14.1447 154.642C17.0875 157.206 18.2267 152.079 21.0746 150.655C21.0746 150.655 22.5935 148.852 20.3152 147.048C17.847 145.149 16.518 146.383 16.518 146.383Z" fill="black"/>
<circle cx="1.61381" cy="149.326" r="1.42396" fill="#060607"/>
<path d="M13.2903 162.996L11.6765 160.338V160.338V160.338V160.338V160.338C12.1511 160.338 19.6507 159.864 23.4479 153.218L25.2516 155.402C20.9797 162.996 13.9548 162.996 13.2903 162.996Z" fill="#F44B69"/>
<circle cx="9.58802" cy="149.896" r="0.569585" fill="#28233C"/>
<path d="M22.2138 180.938L24.4922 196.887C24.4922 196.887 20.8848 196.507 20.4101 199.829H27.9097L30.3779 179.609L22.2138 180.938Z" fill="#F9F9F9"/>
<path d="M21.6442 168.218C18.8912 173.724 22.2138 178.47 22.2138 178.47L22.8783 187.109" stroke="#DCDCDC" stroke-width="0.662523" stroke-linecap="round" stroke-linejoin="round"/>
<path d="M38.6369 183.312C38.6369 183.312 35.0295 186.349 38.3521 191.76C40.4405 195.083 44.0479 196.792 44.0479 196.792" stroke="#DCDCDC" stroke-width="0.662523" stroke-linecap="round" stroke-linejoin="round"/>
<path d="M29.3336 188.058L30.283 177.711" stroke="#DCDCDC" stroke-width="0.662523" stroke-linecap="round" stroke-linejoin="round"/>
<defs>
<filter id="filter0_f" x="63.2817" y="201.282" width="79.4366" height="11.4366" filterUnits="userSpaceOnUse" color-interpolation-filters="sRGB">
<feFlood flood-opacity="0" result="BackgroundImageFix"/>
<feBlend mode="normal" in="SourceGraphic" in2="BackgroundImageFix" result="shape"/>
<feGaussianBlur stdDeviation="1.35914" result="effect1_foregroundBlur"/>
</filter>
<filter id="filter1_f" x="3.28172" y="189.282" width="55.4366" height="19.4366" filterUnits="userSpaceOnUse" color-interpolation-filters="sRGB">
<feFlood flood-opacity="0" result="BackgroundImageFix"/>
<feBlend mode="normal" in="SourceGraphic" in2="BackgroundImageFix" result="shape"/>
<feGaussianBlur stdDeviation="1.35914" result="effect1_foregroundBlur"/>
</filter>
<linearGradient id="paint0_linear" x1="88.5135" y1="73.2789" x2="128.014" y2="93.883" gradientUnits="userSpaceOnUse">
<stop stop-color="#F44B69"/>
<stop offset="1" stop-color="#FFA59D"/>
</linearGradient>
<linearGradient id="paint1_linear" x1="53.8985" y1="66.2581" x2="90.3364" y2="92.8375" gradientUnits="userSpaceOnUse">
<stop stop-color="#F44B69"/>
<stop offset="1" stop-color="#FFA59D"/>
</linearGradient>
<linearGradient id="paint2_linear" x1="30.7219" y1="71.3473" x2="51.9957" y2="104.025" gradientUnits="userSpaceOnUse">
<stop stop-color="#F44B69"/>
<stop offset="1" stop-color="#FFA59D"/>
</linearGradient>
<linearGradient id="paint3_linear" x1="57.7033" y1="76.7831" x2="111.08" y2="111.107" gradientUnits="userSpaceOnUse">
<stop stop-color="#F44B69"/>
<stop offset="1" stop-color="#FFA59D"/>
</linearGradient>
<linearGradient id="paint4_linear" x1="80.7748" y1="83.8746" x2="95.5544" y2="107.361" gradientUnits="userSpaceOnUse">
<stop stop-color="#F44B69"/>
<stop offset="1" stop-color="#FFA59D"/>
</linearGradient>
<linearGradient id="paint5_linear" x1="-2.83226" y1="175.412" x2="34.6486" y2="209.771" gradientUnits="userSpaceOnUse">
<stop stop-color="white"/>
<stop offset="1" stop-color="#F1F1F1"/>
</linearGradient>
</defs>
</svg>
