<svg width="67" height="67" viewBox="0 0 67 67" fill="none" xmlns="http://www.w3.org/2000/svg">
<rect x="2.52051" y="36.4891" width="27.7869" height="27.7044" stroke="#0076B8" stroke-width="5"/>
<path d="M4.57434 41.3413C4.57434 40.789 5.02206 40.3413 5.57434 40.3413V40.3413C6.12663 40.3413 6.57434 40.789 6.57434 41.3413V59.3413C6.57434 59.8936 6.12663 60.3413 5.57434 60.3413V60.3413C5.02206 60.3413 4.57434 59.8936 4.57434 59.3413V41.3413Z" fill="#FFC773"/>
<rect x="9.49414" y="40.3413" width="2" height="20" rx="1" fill="#FFC773"/>
<rect x="15.4139" y="40.3413" width="2" height="20" rx="1" fill="#FFC773"/>
<rect x="21.3339" y="40.3413" width="2" height="20" rx="1" fill="#FFC773"/>
<rect x="26.2537" y="40.3413" width="2" height="20" rx="1" fill="#FFC773"/>
<rect x="36.4003" y="36.4891" width="27.7869" height="27.7044" stroke="#0076B8" stroke-width="5"/>
<rect x="38.7039" y="40.3413" width="2" height="20" rx="1" fill="#F78B8B"/>
<rect x="43.3739" y="40.3413" width="2" height="20" rx="1" fill="#F78B8B"/>
<rect x="49.2937" y="40.3413" width="2" height="20" rx="1" fill="#F78B8B"/>
<rect x="55.2136" y="40.3413" width="2" height="20" rx="1" fill="#F78B8B"/>
<rect x="59.8834" y="40.3413" width="2" height="20" rx="1" fill="#F78B8B"/>
<rect x="2.52051" y="2.52686" width="27.7869" height="27.7044" stroke="#0076B8" stroke-width="5"/>
<rect x="4.5741" y="6.37903" width="2" height="20" rx="1" fill="#63BDFE"/>
<rect x="9.49414" y="6.37903" width="2" height="20" rx="1" fill="#63BDFE"/>
<rect x="15.4138" y="6.37903" width="2" height="20" rx="1" fill="#63BDFE"/>
<rect x="21.3337" y="6.37903" width="2" height="20" rx="1" fill="#63BDFE"/>
<rect x="26.2537" y="6.37903" width="2" height="20" rx="1" fill="#63BDFE"/>
</svg>
