<svg width="51" height="51" viewBox="0 0 51 51" fill="none" xmlns="http://www.w3.org/2000/svg">
<path fill-rule="evenodd" clip-rule="evenodd" d="M25.8213 16.8333H17C15.8954 16.8333 15 17.7287 15 18.8333V35C15 36.1046 15.8954 37 17 37H31.313C32.4176 37 33.313 36.1046 33.313 35V27.8333H25.8213V16.8333Z" fill="#1A91FA"/>
<path d="M28.1223 25.0927C27.7941 25.1339 27.5324 24.8049 27.6127 24.4521L29.0707 18.0431C29.1645 17.6311 29.6401 17.5001 29.8921 17.8169L34.3951 23.4773C34.6471 23.7941 34.4666 24.2961 34.0834 24.3442L28.1223 25.0927Z" fill="white"/>
<path d="M19.162 31.5L22.9078 32.875L29.9833 29.6667L31.6481 35.1667H29.9833H18.3296L19.162 31.5Z" fill="white"/>
<ellipse cx="20.4106" cy="27.375" rx="2.08102" ry="2.29167" fill="white"/>
</svg>
