<svg width="40" height="40" viewBox="0 0 40 40" fill="none" xmlns="http://www.w3.org/2000/svg">
<path fill-rule="evenodd" clip-rule="evenodd" d="M19.675 3.33332H2C0.895431 3.33332 0 4.22875 0 5.33332V38C0 39.1046 0.895429 40 2 40H31.2963C32.4009 40 33.2963 39.1046 33.2963 38V23.3333H19.675V3.33332Z" fill="#1A91FA"/>
<path d="M23.3068 18.4197C22.9786 18.4609 22.7169 18.1319 22.7971 17.7791L25.7654 4.73215C25.8591 4.32017 26.3347 4.18916 26.5867 4.50592L35.7537 16.0291C36.0057 16.3458 35.8252 16.8478 35.442 16.8959L23.3068 18.4197Z" fill="white"/>
<path d="M7.5673 30L14.3779 32.5L27.2424 26.6667L30.2694 36.6667H27.2424H6.05383L7.5673 30Z" fill="white"/>
<ellipse cx="9.83751" cy="22.5" rx="3.78367" ry="4.16667" fill="white"/>
</svg>
