<svg width="12" height="13" viewBox="0 0 12 13" fill="none" xmlns="http://www.w3.org/2000/svg">
<g clip-path="url(#clip0)">
<path d="M9.37409 1.79421C10.8507 2.8489 11.8116 4.5739 11.8116 6.52625C11.8116 9.7325 9.21471 12.3317 6.01081 12.3387C2.81159 12.3458 0.191276 9.73718 0.186589 6.53562C0.184245 4.58328 1.14518 2.85359 2.6194 1.79656C2.89362 1.60203 3.27565 1.68406 3.43971 1.97703L3.81003 2.63562C3.94831 2.88171 3.88268 3.19343 3.65534 3.36218C2.68268 4.08406 2.06159 5.22781 2.06159 6.5239C2.05924 8.68718 3.80768 10.4637 5.99909 10.4637C8.14596 10.4637 9.95065 8.72468 9.93659 6.50046C9.92956 5.2864 9.35768 4.11453 8.34049 3.35984C8.11315 3.19109 8.04987 2.87937 8.18815 2.63562L8.55846 1.97703C8.72253 1.6864 9.10221 1.59968 9.37409 1.79421ZM6.93659 6.71375V1.08875C6.93659 0.777026 6.68581 0.526245 6.37409 0.526245H5.62409C5.31237 0.526245 5.06159 0.777026 5.06159 1.08875V6.71375C5.06159 7.02546 5.31237 7.27625 5.62409 7.27625H6.37409C6.68581 7.27625 6.93659 7.02546 6.93659 6.71375Z" fill="#FF0000"/>
</g>
<defs>
<clipPath id="clip0">
<rect width="12" height="12" fill="white" transform="translate(-0.000915527 0.526245)"/>
</clipPath>
</defs>
</svg>
