<svg width="38" height="40" viewBox="0 0 38 40" fill="none" xmlns="http://www.w3.org/2000/svg">
<rect y="20" width="9.85185" height="20" rx="2" fill="white"/>
<rect x="14.0741" y="12.5" width="9.85185" height="27.5" rx="2" fill="white"/>
<rect x="28.1482" y="6.66667" width="9.85185" height="33.3333" rx="2" fill="#1A91FA"/>
<path fill-rule="evenodd" clip-rule="evenodd" d="M33.7779 0.833333C33.7779 0.373096 33.1477 0 32.3705 0ZM32.3705 0C31.5932 0 30.963 0.373096 30.963 0.833333ZM30.963 0.833333C30.963 1.04219 31.0928 1.23309 31.3072 1.37933ZM31.3072 1.37933L20.3065 10.0801ZM20.3065 10.0801C20.1238 10.0287 19.9194 10 19.7037 10C19.3962 10 19.1117 10.0584 18.8802 10.1575L9.83622 8.45804C9.84653 8.41736 9.85188 8.37572 9.85188 8.33333C9.85188 7.8731 9.22176 7.5 8.44447 7.5C7.66718 7.5 7.03706 7.8731 7.03706 8.33333C7.03706 8.56767 7.20042 8.77942 7.46338 8.93082L2.17973 15.9699C1.95801 15.8836 1.69262 15.8333 1.40741 15.8333C0.630118 15.8333 0 16.2064 0 16.6667C0 17.1269 0.630118 17.5 1.40741 17.5C2.1847 17.5 2.81481 17.1269 2.81483 16.6667L8.44446 9.16667L8.44444 9.16667H8.44447L18.3337 11.0249C18.4799 11.3928 19.0378 11.6667 19.7037 11.6667C20.481 11.6667 21.1111 11.2936 21.1111 10.8333C21.1111 10.7259 21.0768 10.6233 21.0143 10.529L21.1112 10.5719" fill="white"/>
</svg>
