<svg width="40" height="48" viewBox="0 0 40 48" fill="none" xmlns="http://www.w3.org/2000/svg">
<rect y="24" width="10.3704" height="24" rx="2" fill="white"/>
<rect x="14.8148" y="15" width="10.3704" height="33" rx="2" fill="white"/>
<rect x="29.6296" y="8" width="10.3704" height="40" rx="2" fill="#1A91FA"/>
<path fill-rule="evenodd" clip-rule="evenodd" d="M35.5555 1C35.5555 1.55228 34.8923 2 34.0741 2L22.2222 12.6863L22.1203 12.6348C22.1861 12.748 22.2222 12.8711 22.2222 13C22.2222 13.5523 21.5589 14 20.7407 14C20.0398 14 19.4525 13.6714 19.2986 13.2299L8.88892 11L2.96299 20H2.96296C2.96296 20.5523 2.29968 21 1.48148 21C0.663282 21 0 20.5523 0 20C0 19.4477 0.663282 19 1.48148 19C1.80572 19 2.10563 19.0703 2.34958 19.1896L7.9072 10.7489C7.60067 10.5657 7.40743 10.2981 7.40743 10C7.40743 9.44771 8.07072 9 8.88892 9C9.70712 9 10.3704 9.44771 10.3704 10C10.3704 10.1068 10.3456 10.2096 10.2997 10.3061L19.6651 12.3123C19.9352 12.12 20.3172 12 20.7407 12C20.9993 12 21.2424 12.0447 21.4539 12.1233L33.0149 1.69922C32.7536 1.51891 32.5926 1.27215 32.5926 1C32.5926 0.447715 33.2559 0 34.0741 0C34.8923 0 35.5555 0.447715 35.5555 1Z" fill="white"/>
</svg>
